<svg width="130" height="60" viewBox="0 0 130 60" fill="none" xmlns="http://www.w3.org/2000/svg">
<g clip-path="url(#clip0_5679_82)">
<rect x="1" y="0.268311" width="61.4186" height="58.9262" rx="3.5605" fill="#2B8C4D"/>
<path d="M29.8574 48.4102C27.9775 48.4102 26.0804 48.3418 24.1663 48.2051C22.2522 48.1025 20.5773 47.8633 19.1417 47.4873V12.9818C19.8937 12.8451 20.697 12.7254 21.5515 12.6229C22.406 12.4862 23.2776 12.3836 24.1663 12.3153C25.055 12.2469 25.9266 12.1956 26.7811 12.1615C27.6698 12.1273 28.5073 12.1102 29.2934 12.1102C31.4468 12.1102 33.4464 12.2811 35.2922 12.6229C37.1379 12.9305 38.7273 13.4603 40.0604 14.2123C41.4276 14.9643 42.4872 15.9555 43.2392 17.186C43.9912 18.4165 44.3671 19.9376 44.3671 21.7492C44.3671 23.424 43.957 24.8596 43.1366 26.0559C42.3505 27.2523 41.2396 28.2093 39.804 28.9271C41.9574 29.6449 43.5468 30.7045 44.5722 32.1059C45.5977 33.5074 46.1104 35.2848 46.1104 37.4381C46.1104 41.0955 44.7773 43.847 42.1112 45.6928C39.4451 47.5044 35.3605 48.4102 29.8574 48.4102ZM25.4994 32.0034V42.8216C26.2172 42.89 26.9862 42.9412 27.8066 42.9754C28.6269 43.0096 29.3789 43.0267 30.0625 43.0267C31.3955 43.0267 32.6261 42.9412 33.754 42.7703C34.9162 42.5994 35.9074 42.3089 36.7277 41.8987C37.5823 41.4544 38.2488 40.8733 38.7273 40.1555C39.24 39.4377 39.4964 38.5148 39.4964 37.3869C39.4964 35.3702 38.7615 33.9688 37.2917 33.1826C35.822 32.3965 33.7882 32.0034 31.1905 32.0034H25.4994ZM25.4994 26.9276H30.0625C32.5235 26.9276 34.4547 26.5857 35.8561 25.9021C37.2575 25.1843 37.9583 23.9196 37.9583 22.1081C37.9583 20.399 37.2234 19.1856 35.7536 18.4678C34.318 17.75 32.4381 17.3911 30.1138 17.3911C29.1225 17.3911 28.2338 17.4082 27.4477 17.4424C26.6957 17.4766 26.0463 17.5278 25.4994 17.5962V26.9276Z" fill="#FAFAFA"/>
<rect x="67.5813" y="0.268311" width="61.4186" height="58.9262" rx="3.5605" fill="#7EC876"/>
<path d="M90.9369 42.6678C91.3129 42.702 91.8085 42.7362 92.4237 42.7703C93.039 42.7703 93.8764 42.7703 94.936 42.7703C99.277 42.7703 102.507 41.6766 104.626 39.489C106.78 37.2672 107.856 34.1739 107.856 30.2089C107.856 26.1756 106.814 23.0822 104.729 20.9288C102.644 18.7754 99.4137 17.6987 95.0386 17.6987C93.1244 17.6987 91.7572 17.75 90.9369 17.8526V42.6678ZM114.624 30.2089C114.624 33.2852 114.146 35.9684 113.189 38.2585C112.231 40.5144 110.864 42.4114 109.087 43.9496C107.344 45.4535 105.224 46.5815 102.729 47.3335C100.268 48.0513 97.5338 48.4102 94.5258 48.4102C93.0903 48.4102 91.4667 48.3418 89.6551 48.2051C87.8435 48.1025 86.1174 47.8633 84.4767 47.4873V12.9818C86.1174 12.6058 87.8606 12.3665 89.7064 12.264C91.5521 12.1615 93.1928 12.1102 94.6284 12.1102C97.6021 12.1102 100.319 12.4691 102.781 13.1869C105.242 13.8705 107.344 14.9643 109.087 16.4682C110.864 17.938 112.231 19.818 113.189 22.1081C114.146 24.364 114.624 27.0643 114.624 30.2089Z" fill="white"/>
</g>
<defs>
<clipPath id="clip0_5679_82">
<rect width="130" height="60" fill="white"/>
</clipPath>
</defs>
</svg>
